# xmcd
#
# Track frame offsets:
#	180
#	13251
#	36501
#	51671
#	62868
#	76329
#	87834
#	99586
#	112313
#	130626
#
# Disc length: 1968 seconds
#
# Revision: 4
# Processed by: cddbd v1.5.2PL0 Copyright (c) Steve Scherf et al.
# Submitted via: EasyCDDAExtractor 2010.6.0.0
#
DISCID=8d07ae0a
DTITLE=Various Artist - Classic Soul Love Songs
DYEAR=1990
DGENRE=R&B
TTITLE0=Percy Sledge - Warm And Tender Love
TTITLE1=Chi-Lites - Have You Seen Her
TTITLE2=George McCrae - Rock Your Baby
TTITLE3=Little Anthony - Going Out Of My Head
TTITLE4=Jackie Wilson - Higher and Higher
TTITLE5=Maxine Brown - All In My Mind
TTITLE6=Shirelles - Will You Love Me Tomorrow
TTITLE7=Betty Everett and Jerry Butler - Let It Be Me
TTITLE8=Brook Benton - Rainy Night In Georgia
TTITLE9=Chi-Lites - Oh Girl
EXTD=
EXTT0=Percy Sledge
EXTT1=The Chi-Lites
EXTT2=George McCrae
EXTT3=Little Anthony and the Imperials
EXTT4=Jackie Wilson
EXTT5=Maxine Brown
EXTT6=The Shirelles
EXTT7=Betty Everett and Jerry Butler
EXTT8=Brook Benton
EXTT9=The Chi-Lites
PLAYORDER=
